<mxfile host="Drawpyo" modified="2024-06-12T11:50:00" agent="Python 3.11, Drawpyo 0.01" version="21.6.5" type="device">
  <diagram name="Page-1" id="139729527365200">
    <mxGraphModel dx="2037" dy="830" grid="1" gridSize="10" guides="1" toolTips="1" connect="1" arrows="1" fold="1" page="1" pageScale="1" pageWidth="850" pageHeight="1100" math="0" shadow="0">
      <root>
        <mxCell id="0" />
        <mxCell id="1" parent="0" />
        <mxCell id="139729520915024" value="FH状态" style="whiteSpace=wrap;rounded=0;fillColor=#fff2cc;strokeColor=#d6b656;dashed=0;" vertex="1" parent="1">
  <mxGeometry x="0" y="0" width="120" height="80" as="geometry" />
</mxCell>
        <mxCell id="139729524367248" value="Node 2" style="whiteSpace=wrap;rounded=0;fillColor=#d5e8d4;strokeColor=#82b366;dashed=0;" vertex="1" parent="1">
  <mxGeometry x="100" y="0" width="120" height="80" as="geometry" />
</mxCell>
        <mxCell id="139729520920656" value="小区状态" style="whiteSpace=wrap;rounded=0;fillColor=#fff2cc;strokeColor=#d6b656;dashed=0;" vertex="1" parent="1">
  <mxGeometry x="200" y="0" width="120" height="80" as="geometry" />
</mxCell>
        <mxCell id="139729520931088" value="Node 4" style="whiteSpace=wrap;rounded=0;dashed=0;" vertex="1" parent="1">
  <mxGeometry x="0" y="50" width="120" height="80" as="geometry" />
</mxCell>
        <mxCell id="139729520924240" value="FH状态" style="whiteSpace=wrap;rounded=0;dashed=0;" vertex="1" parent="1">
  <mxGeometry x="100" y="50" width="100" height="80" as="geometry" />
</mxCell>
        <mxCell id="139729520931856" value="小区状态" style="whiteSpace=wrap;rounded=0;dashed=0;" vertex="1" parent="1">
  <mxGeometry x="200" y="50" width="100" height="80" as="geometry" />
</mxCell>
        <mxCell id="139729520932560" value="RU状态" style="whiteSpace=wrap;rounded=0;dashed=0;" vertex="1" parent="1">
  <mxGeometry x="0" y="100" width="100" height="80" as="geometry" />
</mxCell>
        <mxCell id="139729520931472" value="ONU状态" style="whiteSpace=wrap;rounded=0;dashed=0;" vertex="1" parent="1">
  <mxGeometry x="100" y="100" width="100" height="80" as="geometry" />
</mxCell>
        <mxCell id="139729520929232" style="edgeStyle=orthogonalEdgeStyle;orthogonalLoop=1;rounded=0;jettySize=auto;entryX=0.5;entryY=0;entryDx=0;entryDy=0;" edge="1" parent="1" source="139729520915024" target="139729520920656" value="yes">
  <mxGeometry relative="1" as="geometry" />
</mxCell>
        <mxCell id="139729520868688" style="edgeStyle=orthogonalEdgeStyle;orthogonalLoop=1;rounded=0;jettySize=auto;entryX=0;entryY=0.5;entryDx=0;entryDy=0;" edge="1" parent="1" source="139729520915024" target="139729524367248" value="no">
  <mxGeometry relative="1" as="geometry" />
</mxCell>
        <mxCell id="139729520921680" style="edgeStyle=orthogonalEdgeStyle;orthogonalLoop=1;rounded=0;jettySize=auto;entryX=0.5;entryY=0;entryDx=0;entryDy=0;" edge="1" parent="1" source="139729524367248" target="139729520931088" value="yes">
  <mxGeometry relative="1" as="geometry" />
</mxCell>
      </root>
    </mxGraphModel>
  </diagram>
</mxfile>